<?xml version="1.0" encoding="utf-8"?>
<!-- Generator: Adobe Illustrator 28.1.0, SVG Export Plug-In . SVG Version: 6.00 Build 0)  -->
<svg version="1.1" id="Layer_1" xmlns="http://www.w3.org/2000/svg" xmlns:xlink="http://www.w3.org/1999/xlink" x="0px" y="0px"
	 viewBox="0 0 622.2 685.8" style="enable-background:new 0 0 622.2 685.8;" xml:space="preserve">
<style type="text/css">
	.st0{clip-path:url(#SVGID_00000138547060058136212790000015167559269273167545_);fill:#CECECE;}
	.st1{clip-path:url(#SVGID_00000089531901317522127220000010083097896226443402_);fill:#8B0834;}
	.st2{clip-path:url(#SVGID_00000076562590133247349210000014442727919205968816_);fill:#8B0834;}
	.st3{clip-path:url(#SVGID_00000178194203915781067350000001506450531415763076_);fill:#8B0834;}
	.st4{clip-path:url(#SVGID_00000042715926114524945380000009383215132610338964_);fill:#FFFFFF;}
	.st5{fill:#FFFFFF;}
	.st6{clip-path:url(#SVGID_00000070817371493145815120000015361056796441043113_);fill:#FFFFFF;}
	.st7{clip-path:url(#SVGID_00000061451350589325540290000012185096847261749160_);fill:#FFFFFF;}
	.st8{clip-path:url(#SVGID_00000106847619686536089030000001080390453678849715_);fill:#FFFFFF;}
	.st9{clip-path:url(#SVGID_00000116222517748531495530000010836679207492745859_);fill:#FFFFFF;}
	.st10{clip-path:url(#SVGID_00000138541583948700107340000014807562267353692814_);fill:#FFFFFF;}
</style>
<g id="Artwork_5_00000058577361153056724760000005567301226003197081_">
	<g>
		<g>
			<g>
				<g>
					<defs>
						<rect id="SVGID_1_" x="0.1" y="24" width="622.2" height="623.8"/>
					</defs>
					<clipPath id="SVGID_00000130612755068108701040000000433604303649709965_">
						<use xlink:href="#SVGID_1_"  style="overflow:visible;"/>
					</clipPath>
					<path style="clip-path:url(#SVGID_00000130612755068108701040000000433604303649709965_);fill:#CECECE;" d="M606.5,24H94
						C43.1,24,0.1,74.9,0.1,106.2v541.6H520c24-1.7,86.6-39.2,86.6-98.7L606.5,24L606.5,24z"/>
				</g>
				<g>
					<defs>
						
							<rect id="SVGID_00000111905519923253907040000001434892998630210208_" x="7.2" y="43.7" transform="matrix(0.9806 -0.1958 0.1958 0.9806 -63.4713 69.2028)" width="622.2" height="623.8"/>
					</defs>
					<clipPath id="SVGID_00000085951176856310503240000015772075460388816825_">
						<use xlink:href="#SVGID_00000111905519923253907040000001434892998630210208_"  style="overflow:visible;"/>
					</clipPath>
					
						<rect x="207.7" y="284.7" transform="matrix(0.9806 -0.1958 0.1958 0.9806 -52.6657 87.1584)" style="clip-path:url(#SVGID_00000085951176856310503240000015772075460388816825_);fill:#8B0834;" width="413.6" height="50.5"/>
				</g>
				<g>
					<defs>
						
							<rect id="SVGID_00000114044562700712565790000003262584628297118336_" x="-65.2" y="-78.6" transform="matrix(0.1425 -0.9898 0.9898 0.1425 -20.0508 443.3746)" width="622.2" height="623.8"/>
					</defs>
					<clipPath id="SVGID_00000042735285525740172020000000601518420065125295_">
						<use xlink:href="#SVGID_00000114044562700712565790000003262584628297118336_"  style="overflow:visible;"/>
					</clipPath>
					
						<rect x="-32.9" y="297.1" transform="matrix(0.1425 -0.9898 0.9898 0.1425 -131.03 493.4076)" style="clip-path:url(#SVGID_00000042735285525740172020000000601518420065125295_);fill:#8B0834;" width="504.3" height="50.5"/>
				</g>
				<g>
					<defs>
						
							<rect id="SVGID_00000096050186540032982680000015438872776950605207_" x="-3.1" y="25.4" transform="matrix(0.99 -0.1409 0.1409 0.99 -44.4514 46.7684)" width="622.2" height="623.8"/>
					</defs>
					<clipPath id="SVGID_00000042714420600877836310000014426519974004308412_">
						<use xlink:href="#SVGID_00000096050186540032982680000015438872776950605207_"  style="overflow:visible;"/>
					</clipPath>
					
						<rect x="294.3" y="71.6" transform="matrix(0.99 -0.1409 0.1409 0.99 -47.3723 48.6038)" style="clip-path:url(#SVGID_00000042714420600877836310000014426519974004308412_);fill:#8B0834;" width="50.5" height="574.5"/>
				</g>
				<g>
					<defs>
						
							<rect id="SVGID_00000092416647674335793710000014694792217700521096_" x="27.5" y="8.2" transform="matrix(0.99 -0.1409 0.1409 0.99 -41.7268 50.9006)" width="622.2" height="623.8"/>
					</defs>
					<clipPath id="SVGID_00000096782310383242761400000004759944583416998306_">
						<use xlink:href="#SVGID_00000092416647674335793710000014694792217700521096_"  style="overflow:visible;"/>
					</clipPath>
					
						<rect x="36.7" y="109.4" transform="matrix(0.99 -0.1409 0.1409 0.99 -16.8411 31.4262)" style="clip-path:url(#SVGID_00000096782310383242761400000004759944583416998306_);fill:#FFFFFF;" width="353.6" height="50.5"/>
				</g>
				<g>
					
						<rect x="-88.8" y="300" transform="matrix(0.1425 -0.9898 0.9898 0.1425 -228.7422 386.5121)" class="st5" width="394.9" height="50.5"/>
				</g>
				<g>
					<defs>
						
							<rect id="SVGID_00000128448465544891231820000011442254579040377728_" x="0" y="-2.3" transform="matrix(0.99 -0.1409 0.1409 0.99 -40.5163 46.9263)" width="622.2" height="623.8"/>
					</defs>
					<clipPath id="SVGID_00000047754375436676533920000010956009784082145983_">
						<use xlink:href="#SVGID_00000128448465544891231820000011442254579040377728_"  style="overflow:visible;"/>
					</clipPath>
					
						<rect x="34.3" y="298" transform="matrix(0.99 -0.1409 0.1409 0.99 -44.2934 20.8934)" style="clip-path:url(#SVGID_00000047754375436676533920000010956009784082145983_);fill:#FFFFFF;" width="182.2" height="50.5"/>
				</g>
				<g>
					<defs>
						
							<rect id="SVGID_00000114772411952702089740000017440796716783021464_" x="-24.8" y="0.3" transform="matrix(0.99 -0.1409 0.1409 0.99 -41.1287 43.4599)" width="622.2" height="623.8"/>
					</defs>
					<clipPath id="SVGID_00000000914095526888373510000006344764696391628969_">
						<use xlink:href="#SVGID_00000114772411952702089740000017440796716783021464_"  style="overflow:visible;"/>
					</clipPath>
					
						<rect x="38.2" y="474.4" transform="matrix(0.99 -0.1409 0.1409 0.99 -69.0921 23.4723)" style="clip-path:url(#SVGID_00000000914095526888373510000006344764696391628969_);fill:#FFFFFF;" width="186" height="50.5"/>
				</g>
				<g>
					<defs>
						
							<rect id="SVGID_00000152975249274462939230000012495558441984812966_" x="7" y="34.7" transform="matrix(0.99 -0.1409 0.1409 0.99 -45.6696 48.2734)" width="622.2" height="623.8"/>
					</defs>
					<clipPath id="SVGID_00000172435769753207073520000015224582603288760735_">
						<use xlink:href="#SVGID_00000152975249274462939230000012495558441984812966_"  style="overflow:visible;"/>
					</clipPath>
					
						<rect x="365.3" y="102.4" transform="matrix(0.99 -0.1409 0.1409 0.99 -37.3727 57.9524)" style="clip-path:url(#SVGID_00000172435769753207073520000015224582603288760735_);fill:#FFFFFF;" width="50.5" height="381"/>
				</g>
				<g>
					<defs>
						
							<rect id="SVGID_00000036216459721223973710000005848226612570507965_" x="5.2" y="50.8" transform="matrix(0.99 -0.1409 0.1409 0.99 -47.947 48.1913)" width="622.2" height="623.8"/>
					</defs>
					<clipPath id="SVGID_00000149346181816863205080000004875859281610332585_">
						<use xlink:href="#SVGID_00000036216459721223973710000005848226612570507965_"  style="overflow:visible;"/>
					</clipPath>
					
						<rect x="477.8" y="145.7" transform="matrix(0.99 -0.1409 0.1409 0.99 -39.088 74.0043)" style="clip-path:url(#SVGID_00000149346181816863205080000004875859281610332585_);fill:#FFFFFF;" width="50.5" height="334.7"/>
				</g>
				<g>
					<defs>
						
							<rect id="SVGID_00000027599350026738569930000008194493833953410198_" x="-2.5" y="53.2" transform="matrix(0.9806 -0.1958 0.1958 0.9806 -65.5215 67.4939)" width="622.2" height="623.8"/>
					</defs>
					<clipPath id="SVGID_00000025432771624656829320000010997875598870669956_">
						<use xlink:href="#SVGID_00000027599350026738569930000008194493833953410198_"  style="overflow:visible;"/>
					</clipPath>
					
						<rect x="348.8" y="338.4" transform="matrix(0.9806 -0.1958 0.1958 0.9806 -62.3384 96.6869)" style="clip-path:url(#SVGID_00000025432771624656829320000010997875598870669956_);fill:#FFFFFF;" width="218.1" height="50.5"/>
				</g>
			</g>
		</g>
	</g>
</g>
</svg>
